<?xml version="1.0" standalone="no"?>
<!DOCTYPE svg PUBLIC "-//W3C//DTD SVG 1.1//EN" "http://www.w3.org/Graphics/SVG/1.1/DTD/svg11.dtd">
<svg width="102mm" height="140mm" viewBox="-51 -70 102 140" xmlns="http://www.w3.org/2000/svg" version="1.1">
<title>OpenSCAD Model</title>
<path d="
M -50.8,66.675 L -50.1936,68.5412 L -48.6061,69.6946 L 48.6061,69.6946 L 50.1936,68.5412 L 50.8,66.675
 L 50.8,-66.675 L 50.1936,-68.5412 L 48.6061,-69.6946 L -48.6061,-69.6946 L -50.1936,-68.5412 L -50.8,-66.675
 z
M -42.7406,56.8167 L -42.7406,32.25 L -42.5953,31.5193 L -42.3645,30.3593 L -41.9506,29.7398 L -41.2935,28.7565
 L -40.3102,28.0994 L -39.6907,27.6855 L -38.5307,27.4547 L -37.8,27.3094 L 37.8,27.3094 L 38.5307,27.4547
 L 39.6907,27.6855 L 40.3102,28.0994 L 41.2935,28.7565 L 41.9506,29.7398 L 42.3645,30.3593 L 42.5953,31.5193
 L 42.7406,32.25 L 42.7406,56.8167 L 42.5953,57.5474 L 42.3645,58.7074 L 41.9506,59.3269 L 41.2935,60.3102
 L 40.3102,60.9673 L 39.6907,61.3812 L 38.96,61.5266 L 37.8,61.7573 L -37.8,61.7573 L -38.96,61.5266
 L -39.6907,61.3812 L -40.3102,60.9673 L -41.2935,60.3102 L -41.9506,59.3269 L -42.3645,58.7074 L -42.5953,57.5474
 z
M -42.2656,14.6333 L -42.2656,-56.5 L -42.0349,-57.66 L -41.8895,-58.3907 L -41.4756,-59.0102 L -40.8185,-59.9935
 L -39.8352,-60.6506 L -39.2157,-61.0645 L -38.485,-61.2099 L -37.325,-61.4406 L -8.525,-61.4406 L -7.36505,-61.2099
 L -6.63431,-61.0645 L -6.01481,-60.6506 L -5.03146,-59.9935 L -4.3744,-59.0102 L -3.96046,-58.3907 L -3.72974,-57.2307
 L -3.58438,-56.5 L -3.58438,14.6333 L -3.72974,15.3641 L -3.96046,16.524 L -4.3744,17.1435 L -5.03146,18.1269
 L -6.01481,18.7839 L -6.63431,19.1979 L -7.36505,19.3432 L -8.525,19.574 L -37.325,19.574 L -38.485,19.3432
 L -39.2157,19.1979 L -39.8352,18.7839 L -40.8185,18.1269 L -41.4756,17.1435 L -41.8895,16.524 L -42.0349,15.7933
 z
M 3.58438,14.6333 L 3.58438,-56.5 L 3.72974,-57.2307 L 3.96046,-58.3907 L 4.3744,-59.0102 L 5.03146,-59.9935
 L 6.01481,-60.6506 L 6.63431,-61.0645 L 7.36505,-61.2099 L 8.525,-61.4406 L 37.325,-61.4406 L 38.485,-61.2099
 L 39.2157,-61.0645 L 39.8352,-60.6506 L 40.8185,-59.9935 L 41.4756,-59.0102 L 41.8895,-58.3907 L 42.0349,-57.66
 L 42.2656,-56.5 L 42.2656,14.6333 L 42.0349,15.7933 L 41.8895,16.524 L 41.4756,17.1435 L 40.8185,18.1269
 L 39.8352,18.7839 L 39.2157,19.1979 L 38.485,19.3432 L 37.325,19.574 L 8.525,19.574 L 7.36505,19.3432
 L 6.63431,19.1979 L 6.01481,18.7839 L 5.03146,18.1269 L 4.3744,17.1435 L 3.96046,16.524 L 3.72974,15.3641
 z
" stroke="black" fill="lightgray" stroke-width="0.5"/>
</svg>
